<?xml version="1.0" encoding="utf-8"?>
<!-- Generator: Adobe Illustrator 17.1.0, SVG Export Plug-In . SVG Version: 6.00 Build 0)  -->
<!DOCTYPE svg PUBLIC "-//W3C//DTD SVG 1.1//EN" "http://www.w3.org/Graphics/SVG/1.1/DTD/svg11.dtd">
<svg version="1.1" id="Capa_1" xmlns="http://www.w3.org/2000/svg" xmlns:xlink="http://www.w3.org/1999/xlink" x="0px" y="0px"
	 viewBox="0 0 1504.7 1479.7" enable-background="new 0 0 1504.7 1479.7" xml:space="preserve">
<circle fill="#575756" cx="698.4" cy="696.6" r="695.3"/>
<path fill="#FFFFFF" d="M1051.7,651.1c35.1,20.2,35.1,70.8,0,91.1L796.6,889.4l-255.1,147.3c-35.1,20.2-78.9-5.1-78.9-45.5V696.6
	V402.1c0-40.5,43.8-65.8,78.9-45.5l255.1,147.3L1051.7,651.1z"/>
<circle fill="#FFFFFF" cx="1216.6" cy="1191" r="245.8"/>
<path fill="#36A9E1" d="M1335,1159.7h-87.1v-87.1c0-17.3-14-31.3-31.3-31.3c-17.3,0-31.3,14-31.3,31.3v87.1h-87.1
	c-17.3,0-31.3,14-31.3,31.3c0,17.3,14,31.3,31.3,31.3h87.1v87.1c0,17.3,14,31.3,31.3,31.3c17.3,0,31.3-14,31.3-31.3v-87.1h87.1
	c17.3,0,31.3-14,31.3-31.3C1366.3,1173.7,1352.3,1159.7,1335,1159.7z"/>
<path fill="#575756" d="M1216.6,903.7c-29,0-57,4.4-83.4,12.4c4.8,13,7.7,26.8,8.6,41.1c23.6-7.6,48.8-11.7,74.8-11.7
	c135.4,0,245.6,110.2,245.6,245.6s-110.2,245.6-245.6,245.6S971,1326.4,971,1191c0-28,4.8-54.8,13.4-79.9c-14.3-1.1-28-4.4-40.9-9.4
	c-9.2,28.1-14.3,58.1-14.3,89.3c0,158.4,128.9,287.4,287.4,287.4c158.4,0,287.4-128.9,287.4-287.4S1375,903.7,1216.6,903.7z"/>
</svg>
