<?xml version="1.0" encoding="utf-8"?>
<!-- Generator: Adobe Illustrator 17.1.0, SVG Export Plug-In . SVG Version: 6.00 Build 0)  -->
<!DOCTYPE svg PUBLIC "-//W3C//DTD SVG 1.1//EN" "http://www.w3.org/Graphics/SVG/1.1/DTD/svg11.dtd">
<svg version="1.1" id="Capa_1" xmlns="http://www.w3.org/2000/svg" xmlns:xlink="http://www.w3.org/1999/xlink" x="0px" y="0px"
	 viewBox="0 0 1665 193.2" enable-background="new 0 0 1665 193.2" xml:space="preserve">
<g>
	<path fill="#36A9E1" d="M94,123.1c-1.8,1.6-4.2,2.8-7.1,3.7c-2.9,0.9-6.3,1.4-10.1,1.4c-5.1,0-9.3-0.6-12.6-1.9
		c-3.3-1.3-5.5-3.5-6.5-6.6c-4-12.4-7.2-22.5-9.8-30.2C45.4,81.7,43.5,75,42,69.2H41c-0.4,8.3-0.7,16-1,22.8
		c-0.2,6.9-0.4,13.5-0.4,20.1c-0.1,6.5-0.2,13.1-0.4,19.7c-0.2,6.7-0.5,14-1,22.1c-1.8,0.7-4.2,1.3-7.2,1.8c-3,0.5-5.9,0.7-8.9,0.7
		c-6.2,0-11.1-1-14.5-3c-3.5-2-5.2-5.6-5.2-10.8L8.5,34.4c1.1-1.8,3.6-3.8,7.4-5.9c3.8-2.1,9.2-3.2,16.1-3.2
		c7.5,0,13.4,1.2,17.6,3.5c4.2,2.3,7.4,6.1,9.3,11.4c1.3,3.4,2.7,7.3,4.1,11.7c1.5,4.4,3,8.9,4.5,13.6c1.5,4.7,2.9,9.3,4.4,13.9
		c1.4,4.6,2.7,8.7,3.8,12.4h1.1c3.4-11.9,6.8-23.4,10.2-34.5c3.4-11.1,6.5-20.4,9.3-27.9c2.1-1.1,4.8-2.1,8.2-2.9
		c3.3-0.8,7-1.2,11.1-1.2c6.9,0,12.6,1,17,3.1c4.4,2.1,6.9,5,7.6,8.8c0.6,2.8,1.2,7.2,1.8,13.1c0.6,5.9,1.3,12.5,2,19.8
		c0.7,7.4,1.4,15.1,2.1,23.3c0.7,8.2,1.4,16.1,2,23.7c0.6,7.6,1.2,14.5,1.6,20.8c0.4,6.3,0.7,11.1,0.8,14.5
		c-2.4,1.4-4.9,2.4-7.5,3.1c-2.6,0.6-6,1-10.1,1c-5.4,0-9.9-0.9-13.6-2.8c-3.7-1.8-5.7-5.4-5.9-10.8c-0.8-15.4-1.4-29.3-1.6-41.6
		c-0.2-12.3-0.5-22.6-1-31h-1.1c-1.4,5.5-3.5,12.5-6.2,20.8C101.1,99.4,97.9,110.1,94,123.1z"/>
	<path fill="#36A9E1" d="M184.4,128.4c-1.6-3.5-3.2-7.5-5-11.9c-1.8-4.4-3.6-9.4-5.5-15.1C172,95.8,170,89.3,168,82
		c-2.1-7.3-4.2-15.7-6.5-25.1c2-2,4.6-3.7,8-5.2c3.3-1.5,7-2.2,10.9-2.2c5,0,9.1,1,12.3,3.1c3.3,2.1,5.7,5.9,7.2,11.6l16.8,58.4h0.8
		c1.7-4.8,3.4-10,5-15.7c1.6-5.7,3.2-11.5,4.8-17.5c1.6-6,3-12,4.4-18c1.3-6,2.5-11.9,3.5-17.7c5.1-2.7,10.7-4,16.8-4
		c4.9,0,9.1,1.1,12.3,3.2c3.3,2.1,4.9,5.8,4.9,11c0,3.8-0.5,8.2-1.5,13.3c-1,5-2.3,10.4-3.9,16c-1.6,5.7-3.5,11.5-5.7,17.5
		c-2.2,6-4.5,11.9-6.9,17.7c-2.4,5.8-4.9,11.3-7.4,16.4c-2.5,5.2-5,9.8-7.4,13.9c-4,6.9-7.6,12.6-11,17c-3.4,4.4-6.7,7.8-9.8,10.3
		c-3.1,2.5-6.2,4.2-9.3,5.1c-3.1,0.9-6.4,1.4-9.8,1.4c-5.9,0-10.8-1.8-14.4-5.3c-3.7-3.5-5.9-8.1-6.6-13.8
		c4.5-3.5,9.1-7.5,13.6-11.8c4.5-4.3,8.6-8.7,12.3-13.3c-2.4-0.7-5-2.4-7.7-5C190.7,140.5,187.7,135.6,184.4,128.4z"/>
	<path fill="#36A9E1" d="M419.3,123.1c-1.8,1.6-4.2,2.8-7.1,3.7c-2.9,0.9-6.3,1.4-10.1,1.4c-5.1,0-9.3-0.6-12.6-1.9
		c-3.3-1.3-5.5-3.5-6.5-6.6c-4-12.4-7.2-22.5-9.8-30.2c-2.5-7.7-4.5-14.5-5.9-20.3h-1.1c-0.4,8.3-0.7,16-1,22.8
		c-0.2,6.9-0.4,13.5-0.4,20.1c-0.1,6.5-0.2,13.1-0.4,19.7c-0.2,6.7-0.5,14-1,22.1c-1.8,0.7-4.2,1.3-7.2,1.8c-3,0.5-5.9,0.7-8.9,0.7
		c-6.2,0-11.1-1-14.5-3c-3.5-2-5.2-5.6-5.2-10.8l6.2-108.2c1.1-1.8,3.6-3.8,7.4-5.9c3.8-2.1,9.2-3.2,16.1-3.2
		c7.5,0,13.4,1.2,17.6,3.5c4.2,2.3,7.4,6.1,9.3,11.4c1.3,3.4,2.7,7.3,4.1,11.7c1.5,4.4,3,8.9,4.5,13.6c1.5,4.7,2.9,9.3,4.4,13.9
		c1.4,4.6,2.7,8.7,3.8,12.4h1.1c3.4-11.9,6.8-23.4,10.2-34.5c3.4-11.1,6.5-20.4,9.3-27.9c2.1-1.1,4.8-2.1,8.2-2.9
		c3.3-0.8,7-1.2,11.1-1.2c6.9,0,12.6,1,17,3.1c4.4,2.1,6.9,5,7.6,8.8c0.6,2.8,1.2,7.2,1.8,13.1c0.6,5.9,1.3,12.5,2,19.8
		c0.7,7.4,1.4,15.1,2.1,23.3c0.7,8.2,1.4,16.1,2,23.7c0.6,7.6,1.2,14.5,1.6,20.8c0.4,6.3,0.7,11.1,0.8,14.5
		c-2.4,1.4-4.9,2.4-7.5,3.1c-2.6,0.6-6,1-10.1,1c-5.4,0-9.9-0.9-13.6-2.8c-3.7-1.8-5.7-5.4-5.9-10.8c-0.8-15.4-1.4-29.3-1.6-41.6
		c-0.2-12.3-0.5-22.6-1-31h-1.1c-1.4,5.5-3.5,12.5-6.2,20.8C426.4,99.4,423.1,110.1,419.3,123.1z"/>
	<path fill="#36A9E1" d="M496.1,53c1.4-0.4,3.6-0.8,6.7-1.3c3-0.4,6.2-0.6,9.4-0.6c3.1,0,5.9,0.2,8.4,0.6c2.5,0.4,4.6,1.3,6.3,2.5
		c1.7,1.3,3,3,3.9,5.2c0.9,2.2,1.4,5.1,1.4,8.6v45.6c0,5.8,1.4,9.9,4.2,12.4c2.8,2.5,6.9,3.7,12.3,3.7c3.3,0,5.9-0.3,8-0.8
		c2-0.6,3.6-1.1,4.8-1.7V53c1.4-0.4,3.6-0.8,6.7-1.3c3-0.4,6.2-0.6,9.4-0.6c3.1,0,5.9,0.2,8.4,0.6c2.5,0.4,4.6,1.3,6.3,2.5
		c1.7,1.3,3,3,3.9,5.2c0.9,2.2,1.4,5.1,1.4,8.6v64.5c0,7.1-3,12.4-8.9,15.9c-5,3.1-10.9,5.5-17.7,7.1c-6.9,1.6-14.3,2.4-22.4,2.4
		c-7.6,0-14.7-0.8-21.1-2.5c-6.4-1.7-12-4.3-16.7-7.9c-4.7-3.5-8.3-8.1-10.8-13.7c-2.5-5.6-3.8-12.3-3.8-20.3V53z"/>
	<path fill="#36A9E1" d="M706.6,123.9c0,10.8-4,19.2-12.1,25.3c-8.1,6.1-19.9,9.1-35.6,9.1c-5.9,0-11.5-0.4-16.6-1.3
		s-9.4-2.2-13-3.9c-3.6-1.8-6.4-4-8.5-6.7c-2.1-2.7-3.1-5.9-3.1-9.5c0-3.4,0.7-6.3,2.1-8.6c1.4-2.3,3.1-4.3,5.1-5.8
		c4.1,2.3,8.8,4.3,14.1,6c5.3,1.8,11.4,2.7,18.4,2.7c4.4,0,7.7-0.6,10.1-1.9c2.3-1.3,3.5-3,3.5-5.1c0-2-0.8-3.5-2.5-4.7
		c-1.7-1.1-4.5-2-8.5-2.8l-6.4-1.3c-12.3-2.4-21.5-6.2-27.5-11.4c-6-5.2-9-12.6-9-22.2c0-5.2,1.1-10,3.4-14.2
		c2.3-4.2,5.4-7.8,9.5-10.6c4.1-2.8,9-5,14.7-6.6c5.7-1.6,12.1-2.3,19-2.3c5.2,0,10.1,0.4,14.7,1.2c4.6,0.8,8.6,1.9,12,3.5
		c3.4,1.6,6.1,3.6,8.1,6c2,2.5,3,5.4,3,8.8c0,3.3-0.6,6-1.8,8.4c-1.2,2.3-2.7,4.3-4.6,5.8c-1.1-0.7-2.8-1.4-5.1-2.2
		c-2.3-0.8-4.7-1.5-7.4-2.1c-2.7-0.6-5.4-1.2-8.2-1.6c-2.8-0.4-5.3-0.6-7.5-0.6c-4.7,0-8.3,0.5-10.8,1.6c-2.5,1.1-3.8,2.7-3.8,5
		c0,1.6,0.7,2.8,2.1,3.8c1.4,1,4.1,1.9,8.1,2.8l6.6,1.5c13.6,3.1,23.2,7.4,29,12.8C703.8,108.2,706.6,115.3,706.6,123.9z"/>
	<path fill="#36A9E1" d="M723.2,22.9c0-5.4,1.8-9.9,5.4-13.6c3.6-3.7,8.4-5.5,14.3-5.5s10.7,1.8,14.3,5.5c3.6,3.7,5.4,8.2,5.4,13.6
		c0,5.4-1.8,9.9-5.4,13.6c-3.6,3.7-8.4,5.5-14.3,5.5s-10.7-1.8-14.3-5.5C725,32.8,723.2,28.3,723.2,22.9z M761,154.5
		c-1.6,0.3-3.9,0.7-6.9,1.2c-3,0.5-6.1,0.7-9.2,0.7c-3.1,0-5.9-0.2-8.4-0.6c-2.5-0.4-4.6-1.3-6.3-2.5c-1.7-1.3-3-3-3.9-5.2
		c-0.9-2.2-1.4-5.1-1.4-8.6V53c1.6-0.3,3.9-0.7,6.9-1.2c3-0.5,6.1-0.7,9.2-0.7c3.1,0,5.9,0.2,8.4,0.6c2.5,0.4,4.6,1.3,6.3,2.5
		c1.7,1.3,3,3,3.9,5.2c0.9,2.2,1.4,5.1,1.4,8.6V154.5z"/>
	<path fill="#36A9E1" d="M842,76.8c-3.5,0-6.9,0.6-10.1,1.7c-3.2,1.1-5.9,2.8-8.3,5c-2.3,2.2-4.2,4.9-5.6,8.2
		c-1.4,3.3-2.1,7.1-2.1,11.5c0,8.8,2.5,15.4,7.5,19.7c5,4.4,11.1,6.6,18.4,6.6c4.2,0,7.9-0.5,11-1.5c3.1-1,5.9-2,8.3-3.2
		c2.8,2,5,4.1,6.4,6.5c1.4,2.3,2.1,5.1,2.1,8.4c0,5.8-2.8,10.3-8.3,13.5c-5.5,3.2-13.2,4.8-22.9,4.8c-8.9,0-17-1.3-24.2-3.9
		c-7.2-2.6-13.4-6.3-18.6-11c-5.2-4.7-9.2-10.4-12-17.1c-2.8-6.6-4.2-14-4.2-22.1c0-9.3,1.5-17.5,4.6-24.5c3-7,7.2-12.8,12.4-17.3
		c5.2-4.5,11.3-7.9,18.1-10.2c6.9-2.3,14.1-3.4,21.8-3.4c10.2,0,18,1.8,23.6,5.5c5.5,3.7,8.3,8.4,8.3,14.2c0,2.7-0.6,5.2-1.9,7.5
		s-2.8,4.4-4.5,6c-2.4-1.1-5.3-2.2-8.7-3.3C849.7,77.3,846,76.8,842,76.8z"/>
	<path fill="#36A9E1" d="M969.3,103.5c-6.2-2.1-11.9-4.3-17-6.5c-5.1-2.2-9.5-4.8-13.2-8c-3.7-3.1-6.5-6.8-8.6-11.1
		c-2.1-4.3-3.1-9.6-3.1-15.8c0-12,4.6-21.6,13.9-28.9c9.3-7.2,22.2-10.8,38.9-10.8c6.1,0,11.7,0.4,17,1.3c5.2,0.8,9.7,2.2,13.5,3.9
		c3.7,1.8,6.7,4,8.8,6.8c2.1,2.8,3.2,6,3.2,9.7c0,3.7-0.8,6.8-2.5,9.4c-1.7,2.6-3.7,4.8-6.2,6.7c-3.1-2-7.3-3.7-12.5-5.2
		c-5.2-1.5-11-2.2-17.2-2.2c-6.4,0-11,0.9-14,2.7c-3,1.8-4.5,4-4.5,6.7c0,2.1,0.9,3.9,2.8,5.2c1.8,1.3,4.6,2.6,8.3,3.7l11.2,3.6
		c13.3,4.2,23.5,9.7,30.7,16.2c7.1,6.6,10.7,15.5,10.7,26.8c0,12-4.7,21.7-14.2,29.2c-9.5,7.4-23.4,11.1-41.8,11.1
		c-6.5,0-12.6-0.5-18.1-1.6c-5.6-1.1-10.5-2.6-14.6-4.7c-4.2-2-7.4-4.6-9.8-7.6c-2.3-3-3.5-6.5-3.5-10.5c0-4.1,1.2-7.6,3.6-10.5
		c2.4-2.9,5-5.1,7.9-6.7c4,3.1,8.8,5.8,14.5,8.1c5.7,2.3,12,3.4,18.8,3.4c6.9,0,11.8-1.1,14.6-3.2c2.8-2.1,4.2-4.6,4.2-7.4
		c0-2.8-1.1-5-3.4-6.5c-2.3-1.5-5.4-2.9-9.5-4.3L969.3,103.5z"/>
	<path fill="#36A9E1" d="M1102,158.1c-8.3,0-16.1-1.2-23.2-3.5c-7.1-2.3-13.4-5.8-18.7-10.5c-5.3-4.7-9.5-10.5-12.5-17.6
		c-3-7.1-4.6-15.3-4.6-24.8c0-9.3,1.5-17.4,4.6-24.1c3-6.7,7-12.2,12-16.6c5-4.3,10.6-7.5,17-9.5c6.4-2,12.9-3.1,19.5-3.1
		c7.5,0,14.3,1.1,20.5,3.4c6.2,2.3,11.5,5.4,15.9,9.3c4.5,4,7.9,8.7,10.4,14.2c2.5,5.5,3.7,11.5,3.7,18c0,4.8-1.3,8.5-4,11
		c-2.7,2.5-6.4,4.2-11.2,4.9l-52.4,7.9c1.6,4.7,4.7,8.2,9.5,10.5c4.8,2.3,10.3,3.5,16.6,3.5c5.8,0,11.3-0.7,16.4-2.2
		c5.2-1.5,9.4-3.2,12.6-5.2c2.3,1.4,4.2,3.4,5.7,5.9c1.6,2.5,2.3,5.2,2.3,8.1c0,6.4-3,11.1-8.9,14.2c-4.5,2.4-9.6,4-15.3,4.9
		C1112.2,157.7,1106.9,158.1,1102,158.1z M1096,74.7c-3.4,0-6.3,0.6-8.8,1.7c-2.5,1.1-4.5,2.6-6,4.3c-1.6,1.8-2.7,3.8-3.5,5.9
		c-0.8,2.2-1.2,4.4-1.4,6.7l36.3-5.9c-0.4-2.8-2-5.7-4.7-8.5C1105.2,76.1,1101.2,74.7,1096,74.7z"/>
	<path fill="#36A9E1" d="M1250.9,123.9c0,10.8-4,19.2-12.1,25.3c-8.1,6.1-19.9,9.1-35.6,9.1c-5.9,0-11.5-0.4-16.6-1.3
		s-9.4-2.2-13-3.9c-3.6-1.8-6.4-4-8.5-6.7c-2.1-2.7-3.1-5.9-3.1-9.5c0-3.4,0.7-6.3,2.1-8.6c1.4-2.3,3.1-4.3,5.1-5.8
		c4.1,2.3,8.8,4.3,14.1,6c5.3,1.8,11.4,2.7,18.4,2.7c4.4,0,7.7-0.6,10.1-1.9c2.3-1.3,3.5-3,3.5-5.1c0-2-0.8-3.5-2.5-4.7
		c-1.7-1.1-4.5-2-8.5-2.8l-6.4-1.3c-12.3-2.4-21.5-6.2-27.5-11.4c-6-5.2-9-12.6-9-22.2c0-5.2,1.1-10,3.4-14.2
		c2.3-4.2,5.4-7.8,9.5-10.6c4.1-2.8,9-5,14.7-6.6c5.7-1.6,12.1-2.3,19-2.3c5.2,0,10.1,0.4,14.7,1.2c4.6,0.8,8.6,1.9,12,3.5
		c3.4,1.6,6.1,3.6,8.1,6c2,2.5,3,5.4,3,8.8c0,3.3-0.6,6-1.8,8.4c-1.2,2.3-2.7,4.3-4.6,5.8c-1.1-0.7-2.8-1.4-5.1-2.2
		c-2.3-0.8-4.7-1.5-7.4-2.1c-2.7-0.6-5.4-1.2-8.2-1.6c-2.8-0.4-5.3-0.6-7.5-0.6c-4.7,0-8.3,0.5-10.8,1.6c-2.5,1.1-3.8,2.7-3.8,5
		c0,1.6,0.7,2.8,2.1,3.8c1.4,1,4.1,1.9,8.1,2.8l6.6,1.5c13.6,3.1,23.2,7.4,29,12.8C1248.1,108.2,1250.9,115.3,1250.9,123.9z"/>
	<path fill="#36A9E1" d="M1355.3,123.9c0,10.8-4,19.2-12.1,25.3c-8.1,6.1-19.9,9.1-35.6,9.1c-5.9,0-11.5-0.4-16.6-1.3
		s-9.4-2.2-13-3.9c-3.6-1.8-6.4-4-8.5-6.7c-2.1-2.7-3.1-5.9-3.1-9.5c0-3.4,0.7-6.3,2.1-8.6c1.4-2.3,3.1-4.3,5.1-5.8
		c4.1,2.3,8.8,4.3,14.1,6c5.3,1.8,11.4,2.7,18.4,2.7c4.4,0,7.7-0.6,10.1-1.9c2.3-1.3,3.5-3,3.5-5.1c0-2-0.8-3.5-2.5-4.7
		c-1.7-1.1-4.5-2-8.5-2.8l-6.4-1.3c-12.3-2.4-21.5-6.2-27.5-11.4c-6-5.2-9-12.6-9-22.2c0-5.2,1.1-10,3.4-14.2
		c2.3-4.2,5.4-7.8,9.5-10.6c4.1-2.8,9-5,14.7-6.6c5.7-1.6,12.1-2.3,19-2.3c5.2,0,10.1,0.4,14.7,1.2c4.6,0.8,8.6,1.9,12,3.5
		c3.4,1.6,6.1,3.6,8.1,6c2,2.5,3,5.4,3,8.8c0,3.3-0.6,6-1.8,8.4c-1.2,2.3-2.7,4.3-4.6,5.8c-1.1-0.7-2.8-1.4-5.1-2.2
		c-2.3-0.8-4.7-1.5-7.4-2.1c-2.7-0.6-5.4-1.2-8.2-1.6c-2.8-0.4-5.3-0.6-7.5-0.6c-4.7,0-8.3,0.5-10.8,1.6c-2.5,1.1-3.8,2.7-3.8,5
		c0,1.6,0.7,2.8,2.1,3.8c1.4,1,4.1,1.9,8.1,2.8l6.6,1.5c13.6,3.1,23.2,7.4,29,12.8C1352.4,108.2,1355.3,115.3,1355.3,123.9z"/>
	<path fill="#36A9E1" d="M1371.9,22.9c0-5.4,1.8-9.9,5.4-13.6c3.6-3.7,8.4-5.5,14.3-5.5s10.7,1.8,14.3,5.5c3.6,3.7,5.4,8.2,5.4,13.6
		c0,5.4-1.8,9.9-5.4,13.6c-3.6,3.7-8.4,5.5-14.3,5.5s-10.7-1.8-14.3-5.5C1373.7,32.8,1371.9,28.3,1371.9,22.9z M1409.6,154.5
		c-1.6,0.3-3.9,0.7-6.9,1.2c-3,0.5-6.1,0.7-9.2,0.7c-3.1,0-5.9-0.2-8.4-0.6c-2.5-0.4-4.6-1.3-6.3-2.5c-1.7-1.3-3-3-3.9-5.2
		c-0.9-2.2-1.4-5.1-1.4-8.6V53c1.6-0.3,3.9-0.7,6.9-1.2c3-0.5,6.1-0.7,9.2-0.7c3.1,0,5.9,0.2,8.4,0.6c2.5,0.4,4.6,1.3,6.3,2.5
		c1.7,1.3,3,3,3.9,5.2c0.9,2.2,1.4,5.1,1.4,8.6V154.5z"/>
	<path fill="#36A9E1" d="M1539.3,103.1c0,8.8-1.3,16.6-4,23.4c-2.7,6.9-6.5,12.6-11.4,17.3c-4.9,4.7-10.7,8.2-17.5,10.6
		c-6.8,2.4-14.4,3.6-22.7,3.6c-8.3,0-15.9-1.3-22.7-3.8c-6.8-2.5-12.6-6.2-17.5-10.9c-4.9-4.7-8.7-10.5-11.4-17.3
		c-2.7-6.8-4-14.4-4-22.9c0-8.3,1.3-15.9,4-22.7c2.7-6.8,6.5-12.6,11.4-17.3c4.9-4.7,10.7-8.4,17.5-10.9c6.8-2.5,14.4-3.8,22.7-3.8
		c8.3,0,15.9,1.3,22.7,3.9c6.8,2.6,12.6,6.3,17.5,11c4.9,4.7,8.7,10.5,11.4,17.3C1537.9,87.4,1539.3,94.9,1539.3,103.1z M1465,103.1
		c0,8.6,1.7,15.2,5,19.8c3.3,4.6,8,6.9,13.9,6.9s10.5-2.3,13.7-7c3.2-4.7,4.8-11.2,4.8-19.7c0-8.5-1.6-15-4.9-19.6
		c-3.3-4.6-7.9-6.9-13.8-6.9c-5.9,0-10.5,2.3-13.8,6.9C1466.6,88.1,1465,94.6,1465,103.1z"/>
	<path fill="#36A9E1" d="M1622.3,89.3c0-4.4-1.2-7.6-3.7-9.7c-2.5-2-5.8-3.1-10.1-3.1c-2.8,0-5.6,0.4-8.4,1.1
		c-2.8,0.7-5.1,1.8-7.1,3.2v73.6c-1.4,0.4-3.6,0.8-6.7,1.3c-3,0.4-6.2,0.6-9.4,0.6c-3.1,0-5.9-0.2-8.4-0.6c-2.5-0.4-4.6-1.3-6.3-2.5
		s-3-3-3.9-5.2c-0.9-2.2-1.4-5.1-1.4-8.6V75.7c0-3.8,0.8-6.9,2.4-9.3c1.6-2.4,3.9-4.6,6.7-6.6c4.8-3.4,10.9-6.2,18.1-8.3
		c7.3-2.1,15.4-3.2,24.3-3.2c16,0,28.3,3.5,36.9,10.5c8.6,7,12.9,16.7,12.9,29.2v66.4c-1.4,0.4-3.6,0.8-6.7,1.3
		c-3,0.4-6.2,0.6-9.4,0.6c-3.1,0-5.9-0.2-8.4-0.6c-2.5-0.4-4.6-1.3-6.3-2.5s-3-3-3.9-5.2c-0.9-2.2-1.4-5.1-1.4-8.6V89.3z"/>
</g>
</svg>
